# xmcd
#
# Track frame offsets:
#	150
#	44882
#	59262
#	75514
#	98236
#	121001
#	133206
#	153729
#	172015
#	200428
#
# Disc length: 2864 seconds
# Revision: 0
# Processed by: cddbd v1.5.2PL0 Copyright (c) Steve Scherf et al.
# Submitted via: dBpowerAMP V12.0
#
DISCID=8c0b2e0a
DTITLE=Ruth Theodore - Dear Lamp Love Moth
DYEAR=2013
DGENRE=Country
TTITLE0=Strings
TTITLE1=Archimedes
TTITLE2=The Heart
TTITLE3=Psychosis and The Willow
TTITLE4=Slowdance
TTITLE5=Algae
TTITLE6=Bull Fight
TTITLE7=Snakes and Ladders
TTITLE8=Pinocchia
TTITLE9=Heavies
EXTD=
EXTT0=
EXTT1=
EXTT2=
EXTT3=
EXTT4=
EXTT5=
EXTT6=
EXTT7=
EXTT8=
EXTT9=
PLAYORDER=
